# xmcd
#
# Track frame offsets:
#	150
#	13608
#	26984
#	40667
#	63687
#	82838
#	100344
#	117691
#	131114
#	141207
#	158199
#	168608
#	181554
#	201155
#	214802
#
# Disc length: 3390 seconds
#
# Revision: 0
# Processed by: cddbd v1.5.2PL0 Copyright (c) Steve Scherf et al.
# Submitted via: EZCDAudioConverter 2.1.7.1
#
DISCID=d70d3c0f
DTITLE=V/A - Out Of Time
DYEAR=1900
DGENRE=MOJO
TTITLE0=Superchunk - Seed Toss
TTITLE1=Big Dipper - All Going Out Together
TTITLE2=Dinosaur Jr - Repulsion
TTITLE3=Miracle Legion - All For The Best
TTITLE4=Dumptruck - Island
TTITLE5=Galaxie 500 - Tugboat
TTITLE6=Pavement - Unseen Power Of The Picket Fence
TTITLE7=Gumball - Light Shines Through
TTITLE8=Urge Overkill - Ticket To L.A.
TTITLE9=Bitch Magnet - Motor
TTITLE10=Alice Donut - My Boyfriend's Back
TTITLE11=Lemonheads - If Only You Were Dead (Early Mallo Cup)
TTITLE12=The Feelies - The High Road
TTITLE13=Beat Happening - Indian Summer
TTITLE14=Slint - Washer
EXTD=
EXTT0=
EXTT1=
EXTT2=
EXTT3=
EXTT4=
EXTT5=
EXTT6=
EXTT7=
EXTT8=
EXTT9=
EXTT10=
EXTT11=
EXTT12=
EXTT13=
EXTT14=
PLAYORDER=
